<svg width="312" height="57" viewBox="0 0 312 57" fill="none" xmlns="http://www.w3.org/2000/svg">
<rect x="7" y="29" width="297" height="28" fill="#FFD700" fill-opacity="0.3"/>
<path d="M56.6275 4.9H67.2775V44.75H56.8775V24.85L48.7275 44.75H41.2775L33.1275 24.85V44.75H22.7275V4.9H33.3775L44.9775 33.25L56.6275 4.9ZM77.6787 35.3C79.1787 37.2 81.362 38.15 84.2287 38.15C86.2287 38.15 87.9454 37.85 89.3787 37.25C90.812 36.6167 92.162 35.6167 93.4287 34.25L100.179 39.25C98.2787 41.45 96.0954 43.1667 93.6287 44.4C91.1954 45.6333 88.3287 46.25 85.0287 46.25C82.3287 46.25 79.862 45.8667 77.6287 45.1C75.3954 44.3667 73.462 43.3 71.8287 41.9C70.1954 40.5 68.9287 38.8 68.0287 36.8C67.1287 34.7667 66.6787 32.4833 66.6787 29.95C66.6787 27.4833 67.1287 25.25 68.0287 23.25C68.962 21.2167 70.2287 19.5 71.8287 18.1C73.4287 16.6667 75.2954 15.5667 77.4287 14.8C79.562 14 81.8454 13.6 84.2787 13.6C86.7787 13.6 89.0787 13.9833 91.1787 14.75C93.2787 15.4833 95.0787 16.55 96.5787 17.95C98.0787 19.35 99.2454 21.0667 100.079 23.1C100.945 25.1333 101.379 27.4333 101.379 30L77.6787 35.3ZM84.6287 21.6C82.362 21.6 80.4954 22.15 79.0287 23.25C77.562 24.35 76.6287 25.8833 76.2287 27.85L90.8287 24.6C90.162 23.7333 89.312 23.0167 88.2787 22.45C87.2454 21.8833 86.0287 21.6 84.6287 21.6ZM128.952 44.75H118.552V26.8C118.552 25.6333 118.252 24.6667 117.652 23.9C117.085 23.1333 116.252 22.75 115.152 22.75C114.618 22.75 114.152 22.8833 113.752 23.15C113.352 23.3833 113.018 23.7 112.752 24.1C112.485 24.4667 112.252 24.9 112.052 25.4C111.885 25.8667 111.768 26.3333 111.702 26.8V44.75H101.302V15.1H110.202L111.002 17.2C112.002 16.1 113.152 15.3167 114.452 14.85C115.752 14.3833 117.035 14.1333 118.302 14.1C119.802 14.0667 121.252 14.4 122.652 15.1C124.085 15.8 125.318 16.8167 126.352 18.15C127.585 16.6167 129.018 15.55 130.652 14.95C132.318 14.35 133.935 14.0667 135.502 14.1C136.868 14.1333 138.185 14.45 139.452 15.05C140.752 15.6167 141.902 16.45 142.902 17.55C143.902 18.6167 144.702 19.9167 145.302 21.45C145.902 22.9833 146.202 24.7 146.202 26.6V44.75H135.802V26.8C135.802 25.6333 135.502 24.6667 134.902 23.9C134.335 23.1333 133.502 22.75 132.402 22.75C131.368 22.75 130.568 23.0833 130.002 23.75C129.468 24.4167 129.118 25.2667 128.952 26.3V44.75ZM146.229 30C146.229 27.4667 146.696 25.1833 147.629 23.15C148.596 21.1167 149.879 19.4 151.479 18C153.113 16.5667 154.996 15.4833 157.129 14.75C159.296 13.9833 161.596 13.6 164.029 13.6C166.496 13.6 168.813 13.9833 170.979 14.75C173.146 15.4833 175.029 16.55 176.629 17.95C178.229 19.35 179.496 21.0667 180.429 23.1C181.363 25.1333 181.829 27.4167 181.829 29.95C181.829 32.45 181.363 34.7167 180.429 36.75C179.496 38.75 178.229 40.45 176.629 41.85C175.029 43.2833 173.146 44.3667 170.979 45.1C168.813 45.8667 166.496 46.25 164.029 46.25C161.596 46.25 159.296 45.8667 157.129 45.1C154.996 44.3667 153.113 43.3 151.479 41.9C149.879 40.5 148.596 38.8 147.629 36.8C146.696 34.7667 146.229 32.5 146.229 30ZM164.029 37.7C165.163 37.7 166.196 37.5 167.129 37.1C168.063 36.7 168.846 36.1667 169.479 35.5C170.113 34.8 170.596 33.9833 170.929 33.05C171.296 32.1167 171.479 31.1 171.479 30C171.479 28.8667 171.296 27.8333 170.929 26.9C170.596 25.9333 170.113 25.1 169.479 24.4C168.846 23.7 168.063 23.1667 167.129 22.8C166.196 22.4 165.163 22.2 164.029 22.2C162.863 22.2 161.813 22.4 160.879 22.8C159.979 23.2 159.196 23.75 158.529 24.45C157.896 25.15 157.413 25.9833 157.079 26.95C156.746 27.8833 156.579 28.9 156.579 30C156.579 31.1 156.746 32.1167 157.079 33.05C157.413 33.9833 157.896 34.8 158.529 35.5C159.196 36.1667 159.979 36.7 160.879 37.1C161.813 37.5 162.863 37.7 164.029 37.7ZM182.757 4.9H205.107C206.84 4.9 208.457 5.13333 209.957 5.6C211.49 6.06666 212.807 6.78333 213.907 7.75C215.007 8.68333 215.874 9.9 216.507 11.4C217.14 12.9 217.457 14.6667 217.457 16.7C217.457 19.3667 217.007 21.5333 216.107 23.2C215.207 24.8333 213.874 26.15 212.107 27.15L219.707 44.75H208.857L202.657 30.15L193.157 32.25V44.75H182.757V4.9ZM207.107 16.95C207.107 16.0167 206.79 15.2167 206.157 14.55C205.557 13.85 204.74 13.5 203.707 13.5H193.157V23.15L202.657 21.4C204.357 21.1 205.524 20.55 206.157 19.75C206.79 18.95 207.107 18.0167 207.107 16.95ZM229.612 15.1V44.75H219.212V15.1H229.612ZM229.612 3.5V12.1H219.212V3.5H229.612ZM253.145 24.35C252.511 23.95 251.811 23.6 251.045 23.3C250.311 22.9667 249.561 22.6833 248.795 22.45C248.061 22.2167 247.328 22.0333 246.595 21.9C245.895 21.7667 245.278 21.7 244.745 21.7C242.411 21.7 241.245 22.2833 241.245 23.45C241.245 24.0167 241.511 24.45 242.045 24.75C242.578 25.05 243.278 25.3167 244.145 25.55C245.878 26.0167 247.545 26.5167 249.145 27.05C250.778 27.5833 252.211 28.25 253.445 29.05C254.711 29.8167 255.711 30.7667 256.445 31.9C257.178 33 257.545 34.3667 257.545 36C257.545 37.7667 257.178 39.3 256.445 40.6C255.745 41.9 254.778 42.9667 253.545 43.8C252.345 44.6333 250.911 45.25 249.245 45.65C247.611 46.05 245.878 46.25 244.045 46.25C241.545 46.25 239.095 45.8833 236.695 45.15C234.328 44.45 232.045 43.35 229.845 41.85L233.495 34.7C234.095 35.1667 234.795 35.6167 235.595 36.05C236.395 36.45 237.228 36.8 238.095 37.1C238.961 37.4 239.845 37.65 240.745 37.85C241.645 38.0167 242.495 38.1 243.295 38.1C244.695 38.1333 245.678 38.0167 246.245 37.75C246.845 37.45 247.145 36.95 247.145 36.25C247.145 35.55 246.745 35.0167 245.945 34.65C245.145 34.2833 244.195 33.95 243.095 33.65C241.228 33.15 239.545 32.6333 238.045 32.1C236.545 31.5333 235.261 30.85 234.195 30.05C233.161 29.25 232.345 28.3 231.745 27.2C231.178 26.1 230.878 24.75 230.845 23.15C230.811 21.45 231.161 20 231.895 18.8C232.661 17.6 233.661 16.6167 234.895 15.85C236.128 15.0833 237.511 14.5167 239.045 14.15C240.611 13.7833 242.195 13.6 243.795 13.6C246.428 13.6 248.795 14 250.895 14.8C252.995 15.6 254.861 16.5 256.495 17.5L253.145 24.35ZM266.673 35.3C268.173 37.2 270.356 38.15 273.223 38.15C275.223 38.15 276.94 37.85 278.373 37.25C279.806 36.6167 281.156 35.6167 282.423 34.25L289.173 39.25C287.273 41.45 285.09 43.1667 282.623 44.4C280.19 45.6333 277.323 46.25 274.023 46.25C271.323 46.25 268.856 45.8667 266.623 45.1C264.39 44.3667 262.456 43.3 260.823 41.9C259.19 40.5 257.923 38.8 257.023 36.8C256.123 34.7667 255.673 32.4833 255.673 29.95C255.673 27.4833 256.123 25.25 257.023 23.25C257.956 21.2167 259.223 19.5 260.823 18.1C262.423 16.6667 264.29 15.5667 266.423 14.8C268.556 14 270.84 13.6 273.273 13.6C275.773 13.6 278.073 13.9833 280.173 14.75C282.273 15.4833 284.073 16.55 285.573 17.95C287.073 19.35 288.24 21.0667 289.073 23.1C289.94 25.1333 290.373 27.4333 290.373 30L266.673 35.3ZM273.623 21.6C271.356 21.6 269.49 22.15 268.023 23.25C266.556 24.35 265.623 25.8833 265.223 27.85L279.823 24.6C279.156 23.7333 278.306 23.0167 277.273 22.45C276.24 21.8833 275.023 21.6 273.623 21.6Z" fill="#2C2C2C"/>
</svg>
